<svg xmlns="http://www.w3.org/2000/svg" width="1440" height="900" viewBox="0 0 1440 900" role="img" aria-labelledby="title">
<title id="title">Commonity v2 desktop Home — light mode</title>
<rect x="0" y="0" width="1440" height="900" rx="0" fill="#F7FAF8"/>
<rect x="0" y="0" width="1440" height="76" rx="0" fill="#FFFFFF"/>
<line x1="0" y1="75" x2="1440" y2="75" stroke="#E1EBE6" stroke-width="1"/>
<g transform="translate(32 18) scale(0.4166666666666667)">
<rect width="96" height="96" rx="22" fill="#0DD5B2"/>
<path d="M48 9C27.6 9 12 24.7 12 44.3 12 62.7 25.1 76.9 45.7 90.4Q48 92.7 50.3 90.4C70.9 76.9 84 62.7 84 44.3 84 24.7 68.4 9 48 9Z" fill="#fff"/>
<path d="M61 33.5C57.3 30.1 52.5 28.5 47.1 28.5 36.6 28.5 29 36.7 29 47.2S36.6 66 47.1 66c5.4 0 10.2-1.6 13.9-5" transform="translate(1.5 0)" fill="none" stroke="#0DD5B2" stroke-width="8.2" stroke-linecap="round"/>
</g>
<text x="83" y="48" fill="#17312D" font-family="Helvetica Neue, Arial, sans-serif" font-size="23" font-weight="600" text-anchor="start">Commonity</text>
<rect x="385" y="18" width="436" height="40" rx="12" fill="#F1F7F3" stroke="#E1EBE6" stroke-width="1"/>
<g transform="translate(399 27) scale(0.8333333333333334)" fill="none" stroke="#647C72" stroke-width="1.8" stroke-linecap="round" stroke-linejoin="round"><circle cx="10.5" cy="10.5" r="6.5"/><path d="M15.5 15.5 21 21"/></g>
<text x="432" y="44" fill="#647C72" font-family="Helvetica Neue, Arial, sans-serif" font-size="13" font-weight="400" text-anchor="start">Search local posts and communities</text>
<rect x="1075" y="19" width="197" height="38" rx="19" fill="#F1F7F3" stroke="#E1EBE6" stroke-width="1"/>
<circle cx="1094" cy="38" r="4" fill="#0DD5B2"/>
<text x="1110" y="43" fill="#17312D" font-family="Helvetica Neue, Arial, sans-serif" font-size="12" font-weight="600" text-anchor="start">Brookside · nearby</text>
<g transform="translate(1244 27) scale(0.75)" fill="none" stroke="#647C72" stroke-width="1.8" stroke-linecap="round" stroke-linejoin="round"><path d="m7 10 5 5 5-5"/></g>
<g transform="translate(1311 28) scale(0.8333333333333334)" fill="none" stroke="#17312D" stroke-width="1.8" stroke-linecap="round" stroke-linejoin="round"><path d="M18 9a6 6 0 0 0-12 0c0 7-2 7-2 9h16c0-2-2-2-2-9Z"/><path d="M10 21h4"/></g>
<circle cx="1382" cy="38" r="18" fill="#E4FAF1"/>
<g transform="translate(1371 27) scale(0.9166666666666666)" fill="none" stroke="#087D69" stroke-width="1.8" stroke-linecap="round" stroke-linejoin="round"><circle cx="12" cy="8" r="4"/><path d="M4.5 21c0-4 3-6 7.5-6s7.5 2 7.5 6"/></g>
<text x="36" y="127" fill="#647C72" font-family="Helvetica Neue, Arial, sans-serif" font-size="11" font-weight="700" text-anchor="start" letter-spacing="1.7">YOUR SPACE</text>
<rect x="24" y="145" width="244" height="43" rx="12" fill="#E4FAF1"/>
<g transform="translate(41 156) scale(0.875)" fill="none" stroke="#087D69" stroke-width="1.8" stroke-linecap="round" stroke-linejoin="round"><path d="M3 10 12 3l9 7v10a1 1 0 0 1-1 1H4a1 1 0 0 1-1-1V10Z"/><path d="M9 21v-7h6v7"/></g>
<text x="77" y="173" fill="#17312D" font-family="Helvetica Neue, Arial, sans-serif" font-size="14" font-weight="600" text-anchor="start">Home</text>
<g transform="translate(41 209) scale(0.875)" fill="none" stroke="#647C72" stroke-width="1.8" stroke-linecap="round" stroke-linejoin="round"><path d="M20 11.5a8 8 0 0 1-11.6 7.1L4 20l1.4-4.4A8 8 0 1 1 20 11.5Z"/></g>
<text x="77" y="226" fill="#647C72" font-family="Helvetica Neue, Arial, sans-serif" font-size="14" font-weight="500" text-anchor="start">Feed</text>
<g transform="translate(41 262) scale(0.875)" fill="none" stroke="#647C72" stroke-width="1.8" stroke-linecap="round" stroke-linejoin="round"><circle cx="12" cy="12" r="9"/><path d="m15.5 8.5-2.2 4.8-4.8 2.2 2.2-4.8 4.8-2.2Z"/></g>
<text x="77" y="279" fill="#647C72" font-family="Helvetica Neue, Arial, sans-serif" font-size="14" font-weight="500" text-anchor="start">Explore</text>
<g transform="translate(41 315) scale(0.875)" fill="none" stroke="#647C72" stroke-width="1.8" stroke-linecap="round" stroke-linejoin="round"><path d="M6 3h12v18l-6-4-6 4V3Z"/></g>
<text x="77" y="332" fill="#647C72" font-family="Helvetica Neue, Arial, sans-serif" font-size="14" font-weight="500" text-anchor="start">Saved</text>
<line x1="35" y1="365" x2="258" y2="365" stroke="#E1EBE6" stroke-width="1"/>
<text x="36" y="393" fill="#647C72" font-family="Helvetica Neue, Arial, sans-serif" font-size="11" font-weight="700" text-anchor="start" letter-spacing="1.2">NEARBY COMMUNITIES</text>
<circle cx="51" cy="428" r="14" fill="#E4FAF1"/>
<text x="51" y="433" fill="#087D69" font-family="Helvetica Neue, Arial, sans-serif" font-size="12" font-weight="600" text-anchor="middle">B</text>
<text x="75" y="433" fill="#17312D" font-family="Helvetica Neue, Arial, sans-serif" font-size="13" font-weight="600" text-anchor="start">Brookside</text>
<circle cx="51" cy="476" r="14" fill="#E4FAF1"/>
<text x="51" y="481" fill="#087D69" font-family="Helvetica Neue, Arial, sans-serif" font-size="12" font-weight="600" text-anchor="middle">O</text>
<text x="75" y="481" fill="#647C72" font-family="Helvetica Neue, Arial, sans-serif" font-size="13" font-weight="500" text-anchor="start">Old Town</text>
<circle cx="51" cy="524" r="14" fill="#E4FAF1"/>
<text x="51" y="529" fill="#087D69" font-family="Helvetica Neue, Arial, sans-serif" font-size="12" font-weight="600" text-anchor="middle">W</text>
<text x="75" y="529" fill="#647C72" font-family="Helvetica Neue, Arial, sans-serif" font-size="13" font-weight="500" text-anchor="start">West End</text>
<rect x="24" y="707" width="244" height="142" rx="16" fill="#FFFFFF" stroke="#E1EBE6" stroke-width="1"/>
<circle cx="53" cy="739" r="16" fill="#E4FAF1"/>
<text x="53" y="745" fill="#087D69" font-family="Helvetica Neue, Arial, sans-serif" font-size="16" font-weight="600" text-anchor="middle">?</text>
<text x="77" y="744" fill="#17312D" font-family="Helvetica Neue, Arial, sans-serif" font-size="13" font-weight="600" text-anchor="start">Anonymous by default</text>
<text x="40" y="777" fill="#647C72" font-family="Helvetica Neue, Arial, sans-serif" font-size="12" font-weight="400" text-anchor="start">Share what matters nearby.</text>
<text x="40" y="796" fill="#647C72" font-family="Helvetica Neue, Arial, sans-serif" font-size="12" font-weight="400" text-anchor="start">Your exact location is never</text>
<text x="40" y="815" fill="#647C72" font-family="Helvetica Neue, Arial, sans-serif" font-size="12" font-weight="400" text-anchor="start">shown on a post.</text>
<text x="300" y="146" fill="#17312D" font-family="Helvetica Neue, Arial, sans-serif" font-size="29" font-weight="600" text-anchor="start">Good morning, Brookside</text>
<text x="300" y="172" fill="#647C72" font-family="Helvetica Neue, Arial, sans-serif" font-size="14" font-weight="400" text-anchor="start">Here&#x27;s what&#x27;s happening around your community.</text>
<rect x="300" y="192" width="700" height="129" rx="18" fill="#DDF9EE"/>
<text x="326" y="239" fill="#173D34" font-family="Helvetica Neue, Arial, sans-serif" font-size="25" font-weight="600" text-anchor="start">A little closer, together.</text>
<text x="326" y="268" fill="#173D34" font-family="Helvetica Neue, Arial, sans-serif" font-size="13" font-weight="400" text-anchor="start">124 fresh conversations in your area today.</text>
<text x="326" y="294" fill="#087D69" font-family="Helvetica Neue, Arial, sans-serif" font-size="12" font-weight="600" text-anchor="start">Open your feed  →</text>
<g transform="translate(867 213) scale(0.9166666666666666)">
<rect width="96" height="96" rx="22" fill="#0DD5B2"/>
<path d="M48 9C27.6 9 12 24.7 12 44.3 12 62.7 25.1 76.9 45.7 90.4Q48 92.7 50.3 90.4C70.9 76.9 84 62.7 84 44.3 84 24.7 68.4 9 48 9Z" fill="#fff"/>
<path d="M61 33.5C57.3 30.1 52.5 28.5 47.1 28.5 36.6 28.5 29 36.7 29 47.2S36.6 66 47.1 66c5.4 0 10.2-1.6 13.9-5" transform="translate(1.5 0)" fill="none" stroke="#0DD5B2" stroke-width="8.2" stroke-linecap="round"/>
</g>
<text x="300" y="354" fill="#17312D" font-family="Helvetica Neue, Arial, sans-serif" font-size="20" font-weight="600" text-anchor="start">Browse categories</text>
<text x="1000" y="353" fill="#087D69" font-family="Helvetica Neue, Arial, sans-serif" font-size="12" font-weight="600" text-anchor="end">Explore all  →</text>
<rect x="300" y="371" width="340" height="99" rx="17" fill="#E4F8F0"/>
<circle cx="327" cy="399" r="15" fill="#FFFFFF"/>
<g transform="translate(316 388) scale(0.9166666666666666)" fill="none" stroke="#087D69" stroke-width="1.8" stroke-linecap="round" stroke-linejoin="round"><path d="M20 11.5a8 8 0 0 1-11.6 7.1L4 20l1.4-4.4A8 8 0 1 1 20 11.5Z"/></g>
<text x="316" y="434" fill="#17312D" font-family="Helvetica Neue, Arial, sans-serif" font-size="14" font-weight="600" text-anchor="start">Ask Local</text>
<text x="316" y="453" fill="#647C72" font-family="Helvetica Neue, Arial, sans-serif" font-size="11.5" font-weight="400" text-anchor="start">2.1k conversations</text>
<rect x="660" y="371" width="340" height="99" rx="17" fill="#EDF0FB"/>
<circle cx="687" cy="399" r="15" fill="#FFFFFF"/>
<g transform="translate(676 388) scale(0.9166666666666666)" fill="none" stroke="#5868A6" stroke-width="1.8" stroke-linecap="round" stroke-linejoin="round"><path d="m12 2 1.8 6.2L20 10l-6.2 1.8L12 18l-1.8-6.2L4 10l6.2-1.8L12 2Z"/></g>
<text x="676" y="434" fill="#17312D" font-family="Helvetica Neue, Arial, sans-serif" font-size="14" font-weight="600" text-anchor="start">Recommendations</text>
<text x="676" y="453" fill="#647C72" font-family="Helvetica Neue, Arial, sans-serif" font-size="11.5" font-weight="400" text-anchor="start">1.4k conversations</text>
<rect x="300" y="483" width="340" height="99" rx="17" fill="#FFF2DE"/>
<circle cx="327" cy="511" r="15" fill="#FFFFFF"/>
<g transform="translate(316 500) scale(0.9166666666666666)" fill="none" stroke="#9B671D" stroke-width="1.8" stroke-linecap="round" stroke-linejoin="round"><rect x="4" y="6" width="16" height="15" rx="2"/><path d="M8 3v6M16 3v6M4 11h16"/></g>
<text x="316" y="546" fill="#17312D" font-family="Helvetica Neue, Arial, sans-serif" font-size="14" font-weight="600" text-anchor="start">Events</text>
<text x="316" y="565" fill="#647C72" font-family="Helvetica Neue, Arial, sans-serif" font-size="11.5" font-weight="400" text-anchor="start">38 this week</text>
<rect x="660" y="483" width="340" height="99" rx="17" fill="#FDEDED"/>
<circle cx="687" cy="511" r="15" fill="#FFFFFF"/>
<g transform="translate(676 500) scale(0.9166666666666666)" fill="none" stroke="#B75D61" stroke-width="1.8" stroke-linecap="round" stroke-linejoin="round"><circle cx="10.5" cy="10.5" r="6.5"/><path d="M15.5 15.5 21 21"/></g>
<text x="676" y="546" fill="#17312D" font-family="Helvetica Neue, Arial, sans-serif" font-size="14" font-weight="600" text-anchor="start">Lost &amp; Found</text>
<text x="676" y="565" fill="#647C72" font-family="Helvetica Neue, Arial, sans-serif" font-size="11.5" font-weight="400" text-anchor="start">124 conversations</text>
<text x="300" y="618" fill="#17312D" font-family="Helvetica Neue, Arial, sans-serif" font-size="20" font-weight="600" text-anchor="start">Popular near you</text>
<text x="1000" y="617" fill="#087D69" font-family="Helvetica Neue, Arial, sans-serif" font-size="12" font-weight="600" text-anchor="end">View feed  →</text>
<rect x="300" y="637" width="700" height="190" rx="17" fill="#FFFFFF" stroke="#E1EBE6" stroke-width="1"/>
<rect x="322" y="652" width="86" height="24" rx="12.0" fill="#E4F8F0"/>
<text x="365.0" y="668.0" fill="#087D69" font-family="Helvetica Neue, Arial, sans-serif" font-size="11" font-weight="600" text-anchor="middle">Ask Local</text>
<text x="458" y="668" fill="#647C72" font-family="Helvetica Neue, Arial, sans-serif" font-size="11" font-weight="400" text-anchor="start">Brookside · 18 min ago</text>
<circle cx="332" cy="698" r="10" fill="#E4FAF1"/>
<circle cx="327" cy="698" r="1.4" fill="#087D69"/>
<circle cx="332" cy="698" r="1.4" fill="#087D69"/>
<circle cx="337" cy="698" r="1.4" fill="#087D69"/>
<text x="350" y="702" fill="#647C72" font-family="Helvetica Neue, Arial, sans-serif" font-size="12" font-weight="600" text-anchor="start">Anonymous neighbor</text>
<text x="322" y="733" fill="#17312D" font-family="Helvetica Neue, Arial, sans-serif" font-size="18" font-weight="600" text-anchor="start">Best quiet place to read after 6?</text>
<text x="322" y="760" fill="#647C72" font-family="Helvetica Neue, Arial, sans-serif" font-size="14" font-weight="400" text-anchor="start">The library closes early. Looking for somewhere cozy and calm.</text>
<line x1="322" y1="785" x2="978" y2="785" stroke="#E1EBE6" stroke-width="1"/>
<g transform="translate(322 793) scale(0.7083333333333334)" fill="none" stroke="#647C72" stroke-width="1.8" stroke-linecap="round" stroke-linejoin="round"><path d="m12 19 0-14m-5 5 5-5 5 5"/></g>
<text x="346" y="810" fill="#647C72" font-family="Helvetica Neue, Arial, sans-serif" font-size="12" font-weight="600" text-anchor="start">42</text>
<g transform="translate(396 793) scale(0.7083333333333334)" fill="none" stroke="#647C72" stroke-width="1.8" stroke-linecap="round" stroke-linejoin="round"><path d="M20 11.5a8 8 0 0 1-11.6 7.1L4 20l1.4-4.4A8 8 0 1 1 20 11.5Z"/></g>
<text x="421" y="810" fill="#647C72" font-family="Helvetica Neue, Arial, sans-serif" font-size="12" font-weight="600" text-anchor="start">16</text>
<g transform="translate(959 793) scale(0.7083333333333334)" fill="none" stroke="#647C72" stroke-width="1.8" stroke-linecap="round" stroke-linejoin="round"><path d="M6 3h12v18l-6-4-6 4V3Z"/></g>
<rect x="1028" y="106" width="380" height="206" rx="17" fill="#FFFFFF" stroke="#E1EBE6" stroke-width="1"/>
<text x="1051" y="143" fill="#17312D" font-family="Helvetica Neue, Arial, sans-serif" font-size="17" font-weight="600" text-anchor="start">Neighborhood pulse</text>
<text x="1051" y="182" fill="#17312D" font-family="Helvetica Neue, Arial, sans-serif" font-size="30" font-weight="600" text-anchor="start">12.4k</text>
<text x="1150" y="181" fill="#647C72" font-family="Helvetica Neue, Arial, sans-serif" font-size="12" font-weight="400" text-anchor="start">neighbors around Brookside</text>
<line x1="1051" y1="203" x2="1385" y2="203" stroke="#E1EBE6" stroke-width="1"/>
<circle cx="1060" cy="236" r="5" fill="#0DD5B2"/>
<text x="1076" y="240" fill="#17312D" font-family="Helvetica Neue, Arial, sans-serif" font-size="12.5" font-weight="600" text-anchor="start">Ask Local is active today</text>
<circle cx="1060" cy="273" r="5" fill="#E9B567"/>
<text x="1076" y="277" fill="#17312D" font-family="Helvetica Neue, Arial, sans-serif" font-size="12.5" font-weight="600" text-anchor="start">38 events shared this week</text>
<rect x="1028" y="328" width="380" height="255" rx="17" fill="#FFFFFF" stroke="#E1EBE6" stroke-width="1"/>
<text x="1051" y="365" fill="#17312D" font-family="Helvetica Neue, Arial, sans-serif" font-size="17" font-weight="600" text-anchor="start">Nearby communities</text>
<circle cx="1071" cy="398" r="15" fill="#E4FAF1"/>
<text x="1071" y="403" fill="#087D69" font-family="Helvetica Neue, Arial, sans-serif" font-size="13" font-weight="600" text-anchor="middle">B</text>
<text x="1100" y="394" fill="#17312D" font-family="Helvetica Neue, Arial, sans-serif" font-size="13" font-weight="600" text-anchor="start">Brookside</text>
<text x="1100" y="412" fill="#647C72" font-family="Helvetica Neue, Arial, sans-serif" font-size="11.5" font-weight="400" text-anchor="start">Your area · 12.4k neighbors</text>
<circle cx="1071" cy="460" r="15" fill="#E4FAF1"/>
<text x="1071" y="465" fill="#087D69" font-family="Helvetica Neue, Arial, sans-serif" font-size="13" font-weight="600" text-anchor="middle">O</text>
<text x="1100" y="456" fill="#17312D" font-family="Helvetica Neue, Arial, sans-serif" font-size="13" font-weight="600" text-anchor="start">Old Town</text>
<text x="1100" y="474" fill="#647C72" font-family="Helvetica Neue, Arial, sans-serif" font-size="11.5" font-weight="400" text-anchor="start">Nearby · 4.8k neighbors</text>
<circle cx="1071" cy="522" r="15" fill="#E4FAF1"/>
<text x="1071" y="527" fill="#087D69" font-family="Helvetica Neue, Arial, sans-serif" font-size="13" font-weight="600" text-anchor="middle">W</text>
<text x="1100" y="518" fill="#17312D" font-family="Helvetica Neue, Arial, sans-serif" font-size="13" font-weight="600" text-anchor="start">West End</text>
<text x="1100" y="536" fill="#647C72" font-family="Helvetica Neue, Arial, sans-serif" font-size="11.5" font-weight="400" text-anchor="start">Nearby · 3.1k neighbors</text>
<rect x="1028" y="599" width="380" height="175" rx="17" fill="#FFFFFF" stroke="#E1EBE6" stroke-width="1"/>
<text x="1051" y="636" fill="#17312D" font-family="Helvetica Neue, Arial, sans-serif" font-size="17" font-weight="600" text-anchor="start">Coming up</text>
<text x="1051" y="665" fill="#17312D" font-family="Helvetica Neue, Arial, sans-serif" font-size="13" font-weight="600" text-anchor="start">Maple Street market · Saturday</text>
<text x="1051" y="687" fill="#647C72" font-family="Helvetica Neue, Arial, sans-serif" font-size="12" font-weight="400" text-anchor="start">Plant swap, bread, and neighbors.</text>
<text x="1051" y="740" fill="#087D69" font-family="Helvetica Neue, Arial, sans-serif" font-size="12" font-weight="600" text-anchor="start">Explore local events  →</text>
</svg>
